<?xml version="1.0" encoding="UTF-8" standalone="no" ?>
<!DOCTYPE svg PUBLIC "-//W3C//DTD SVG 1.1//EN" "http://www.w3.org/Graphics/SVG/1.1/DTD/svg11.dtd">
<svg xmlns="http://www.w3.org/2000/svg" xmlns:xlink="http://www.w3.org/1999/xlink" version="1.1" width="140.757" height="153.38" xml:space="preserve">
<desc>Created with Fabric.js 1.6.0-rc.1</desc>
<defs></defs>
<g style="stroke: none; stroke-width: 1; stroke-dasharray: none; stroke-linecap: butt; stroke-linejoin: miter; stroke-miterlimit: 10; fill: none; fill-rule: nonzero; opacity: 1;" transform="translate(10 10) scale(0.26 0.26)" >
  <path d="M 429.183 348.405 c -4.187 -0.821 -6.917 -4.881 -6.095 -9.069 c 0.771 -3.931 1.498 -8.018 2.161 -12.147 c 0.677 -4.212 4.641 -7.079 8.854 -6.404 c 4.213 0.677 7.08 4.641 6.404 8.854 c -0.691 4.303 -1.466 8.562 -2.255 12.67 C 436.689 350.446 429.686 348.504 429.183 348.405 z" style="stroke: none; stroke-width: 1; stroke-dasharray: none; stroke-linecap: butt; stroke-linejoin: miter; stroke-miterlimit: 10; fill: #2D2D30; fill-rule: nonzero; opacity: 1;" transform=" matrix(1 0 0 1 0 0) " stroke-linecap="round" />
  <path d="M 435.35 311.104 c -4.245 -0.432 -7.336 -4.224 -6.903 -8.469 c 0.41 -4.04 0.78 -8.198 1.095 -12.358 c 0.322 -4.256 4.055 -7.442 8.288 -7.121 c 4.256 0.322 7.443 4.033 7.121 8.288 c -0.324 4.293 -0.723 8.582 -1.131 12.757 C 442.977 312.819 435.616 311.131 435.35 311.104 z" style="stroke: none; stroke-width: 1; stroke-dasharray: none; stroke-linecap: butt; stroke-linejoin: miter; stroke-miterlimit: 10; fill: #2D2D30; fill-rule: nonzero; opacity: 1;" transform=" matrix(1 0 0 1 0 0) " stroke-linecap="round" />
  <path d="M 351.995 391.911 c -13.014 67.611 -68.158 57.668 -68.158 57.668 l -153.933 -16.622 l -3.917 36.27 c -1.636 15.149 9.318 28.754 24.467 30.39 l 111.086 11.995 c 16.75 1.809 33.565 -2.779 47.075 -12.844 l 39.117 -29.142 c 13.474 -10.038 22.961 -24.52 26.78 -40.883 l 16.514 -70.752 L 351.995 391.911 z" style="stroke: none; stroke-width: 1; stroke-dasharray: none; stroke-linecap: butt; stroke-linejoin: miter; stroke-miterlimit: 10; fill: #96C8EF; fill-rule: nonzero; opacity: 1;" transform=" matrix(1 0 0 1 0 0) " stroke-linecap="round" />
  <path d="M 343.169 418.277 c 13.433 -5.163 26.25 -11.655 38.306 -19.367 l 9.551 -40.917 l -39.031 33.919 C 349.959 402.486 346.893 411.162 343.169 418.277 z" style="stroke: none; stroke-width: 1; stroke-dasharray: none; stroke-linecap: butt; stroke-linejoin: miter; stroke-miterlimit: 10; fill: #78B9EB; fill-rule: nonzero; opacity: 1;" transform=" matrix(1 0 0 1 0 0) " stroke-linecap="round" />
  <path d="M 458.364 239.591 c 11.445 -105.989 -65.198 -201.188 -171.187 -212.633 S 85.99 92.156 74.544 198.145 c -2.345 21.716 -0.987 42.978 3.559 63.16 c -15.769 9.574 -27.067 26.114 -29.2 45.873 c -3.638 33.689 20.723 63.949 54.413 67.587 l -2.944 27.268 c -1.635 15.142 9.314 28.741 24.455 30.376 l 159.012 17.171 c 15.142 1.635 28.741 -9.314 30.376 -24.455 l 2.133 -19.749 C 391.122 385.355 449.555 321.171 458.364 239.591 z" style="stroke: none; stroke-width: 1; stroke-dasharray: none; stroke-linecap: butt; stroke-linejoin: miter; stroke-miterlimit: 10; fill: #D1E7F8; fill-rule: nonzero; opacity: 1;" transform=" matrix(1 0 0 1 0 0) " stroke-linecap="round" />
  <path d="M 459.478 220.619 c 0 -0.002 0 -0.005 0 -0.007 c -0.024 -0.004 -55.251 -8.785 -107.737 61.588 c -4.7 6.301 -4.322 15.136 1.006 20.916 c 7.842 8.508 17.134 23.873 14.58 47.521 c -3.017 27.944 -24.356 49.452 -50.77 53.905 c -0.136 0.537 -0.211 0.833 -0.211 0.833 c 69.712 -18.666 125.201 -75.723 139.537 -149.468 L 459.478 220.619 z" style="stroke: none; stroke-width: 1; stroke-dasharray: none; stroke-linecap: butt; stroke-linejoin: miter; stroke-miterlimit: 10; fill: #B9D8F4; fill-rule: nonzero; opacity: 1;" transform=" matrix(1 0 0 1 0 0) " stroke-linecap="round" />
  <path d="M 343.169 167.933 c 0 0 41.991 40.081 114.203 22.239 c -5.241 -35.013 -20.001 -67.313 -41.808 -93.849 L 343.169 167.933 z" style="stroke: none; stroke-width: 1; stroke-dasharray: none; stroke-linecap: butt; stroke-linejoin: miter; stroke-miterlimit: 10; fill: #B9D8F4; fill-rule: nonzero; opacity: 1;" transform=" matrix(1 0 0 1 0 0) " stroke-linecap="round" />
  <circle cx="134.201" cy="270.711" r="43.201" style="stroke: none; stroke-width: 1; stroke-dasharray: none; stroke-linecap: butt; stroke-linejoin: miter; stroke-miterlimit: 10; fill: #57565C; fill-rule: nonzero; opacity: 1;" transform="  matrix(1 0 0 1 0 0) "/>
  <path d="M 126.08 276.35 c 2.157 -19.98 17.615 -35.299 36.613 -38.103 c -6.456 -5.677 -14.658 -9.497 -23.856 -10.491 c -23.721 -2.562 -45.028 14.591 -47.589 38.313 c -2.561 23.721 14.593 45.028 38.313 47.589 c 3.741 0.404 7.42 0.315 10.977 -0.209 C 130.342 304.483 124.511 290.874 126.08 276.35 z" style="stroke: none; stroke-width: 1; stroke-dasharray: none; stroke-linecap: butt; stroke-linejoin: miter; stroke-miterlimit: 10; fill: #3E3D42; fill-rule: nonzero; opacity: 1;" transform=" matrix(1 0 0 1 0 0) " stroke-linecap="round" />
  <path d="M 213.801 383.36 c -1.424 13.188 -12.441 15.05 -25.629 13.625 c -13.188 -1.424 -23.554 -5.594 -22.129 -18.782 c 1.424 -13.188 15.848 -46.604 29.037 -45.181 C 208.267 334.447 215.226 370.172 213.801 383.36 z" style="stroke: none; stroke-width: 1; stroke-dasharray: none; stroke-linecap: butt; stroke-linejoin: miter; stroke-miterlimit: 10; fill: #57565C; fill-rule: nonzero; opacity: 1;" transform=" matrix(1 0 0 1 0 0) " stroke-linecap="round" />
  <path d="M 185.216 386.15 c 1.135 -10.513 10.533 -33.862 20.978 -42.188 c -2.945 -6.085 -6.676 -10.459 -11.115 -10.939 c -13.188 -1.424 -27.613 31.992 -29.037 45.181 c -1.405 13.014 8.673 17.245 21.612 18.723 C 185.662 394.253 184.719 390.753 185.216 386.15 z" style="stroke: none; stroke-width: 1; stroke-dasharray: none; stroke-linecap: butt; stroke-linejoin: miter; stroke-miterlimit: 10; fill: #3E3D42; fill-rule: nonzero; opacity: 1;" transform=" matrix(1 0 0 1 0 0) " stroke-linecap="round" />
  <path d="M 309.151 453.526 l -14.504 1.298 c -13.246 1.186 -26.113 -4.813 -33.722 -15.72 l -21.119 -30.273 c -9.14 -12.308 -21.816 -16.287 -21.816 -16.287 c -10.328 -4.534 -21.273 -4.251 -29.496 0.57 c -7.005 -6.464 -17.638 -9.078 -28.695 -6.853 c 0 0 -13.234 1.183 -24.789 11.255 l -27.094 25.066 c -9.762 9.032 -23.613 12.145 -36.3 8.159 l -13.892 -4.364 c -4.973 -1.563 -9.568 3.277 -7.751 8.162 v 0.001 c 1.812 3.798 4.769 7.583 8.34 11.207 c 18.081 18.345 44.865 25.117 69.744 18.443 c 22.312 -5.984 49.281 -13.948 54.791 -18.798 c 4.348 5.914 28.995 19.452 49.516 30.061 c 22.88 11.831 50.494 10.933 72.075 -3.13 c 4.263 -2.778 7.959 -5.844 10.541 -9.169 l 0.001 -0.001 C 317.799 458.77 314.343 453.061 309.151 453.526 z" style="stroke: none; stroke-width: 1; stroke-dasharray: none; stroke-linecap: butt; stroke-linejoin: miter; stroke-miterlimit: 10; fill: #806749; fill-rule: nonzero; opacity: 1;" transform=" matrix(1 0 0 1 0 0) " stroke-linecap="round" />
  <path d="M 314.98 463.156 L 314.98 463.156 c 2.819 -4.387 -0.638 -10.095 -5.83 -9.63 l -14.504 1.298 c -8.08 0.723 -16.011 -1.239 -22.701 -5.345 c -12.418 0.478 -24.992 -2.254 -36.392 -8.149 c -11.47 -5.931 -24.231 -12.776 -34.013 -18.694 c -9.962 -6.026 -22.055 -7.331 -33.073 -3.572 c -10.821 3.692 -24.748 7.656 -37.22 11.001 c -12.139 3.256 -24.729 3.303 -36.544 0.374 c -7.351 2.507 -15.428 2.705 -23.086 0.3 l -13.892 -4.364 c -4.973 -1.563 -9.568 3.277 -7.751 8.162 v 0.001 c 1.812 3.798 4.769 7.583 8.34 11.207 c 18.081 18.345 44.866 25.117 69.744 18.443 c 22.312 -5.984 49.281 -13.948 54.792 -18.798 c 4.348 5.914 28.995 19.452 49.516 30.061 c 22.88 11.831 50.494 10.933 72.075 -3.13 C 308.702 469.546 312.399 466.48 314.98 463.156 z" style="stroke: none; stroke-width: 1; stroke-dasharray: none; stroke-linecap: butt; stroke-linejoin: miter; stroke-miterlimit: 10; fill: #5F4D37; fill-rule: nonzero; opacity: 1;" transform=" matrix(1 0 0 1 0 0) " stroke-linecap="round" />
  <path d="M 349.68 444.065 c -4.632 -0.699 -9.17 -1.484 -13.441 -2.683 c -4.108 -1.152 -6.506 -5.417 -5.354 -9.525 s 5.416 -6.507 9.525 -5.354 c 3.537 0.992 7.302 1.741 11.191 2.229 c 4.234 0.531 7.236 4.394 6.705 8.627 C 357.817 441.267 355.069 444.879 349.68 444.065 z" style="stroke: none; stroke-width: 1; stroke-dasharray: none; stroke-linecap: butt; stroke-linejoin: miter; stroke-miterlimit: 10; fill: #2D2D30; fill-rule: nonzero; opacity: 1;" transform=" matrix(1 0 0 1 0 0) " stroke-linecap="round" />
  <path d="M 368.112 436.829 c -1.392 -4.034 0.75 -8.433 4.784 -9.824 c 3.27 -1.128 6.458 -2.709 9.476 -4.701 c 3.564 -2.35 8.355 -1.367 10.705 2.195 s 1.366 8.355 -2.195 10.705 c -4.098 2.702 -8.435 4.911 -12.944 6.409 C 373.268 443.162 369.215 440.027 368.112 436.829 z" style="stroke: none; stroke-width: 1; stroke-dasharray: none; stroke-linecap: butt; stroke-linejoin: miter; stroke-miterlimit: 10; fill: #2D2D30; fill-rule: nonzero; opacity: 1;" transform=" matrix(1 0 0 1 0 0) " stroke-linecap="round" />
  <path d="M 315.797 430.821 c -1.589 0 -3.191 -0.489 -4.57 -1.502 c -3.717 -2.731 -7.232 -5.858 -10.445 -9.288 c -2.917 -3.114 -2.758 -8.005 0.357 -10.921 c 3.113 -2.92 8.005 -2.757 10.921 0.357 c 2.566 2.739 5.364 5.229 8.318 7.401 c 3.439 2.527 4.177 7.363 1.65 10.8 C 320.515 429.729 318.172 430.821 315.797 430.821 z" style="stroke: none; stroke-width: 1; stroke-dasharray: none; stroke-linecap: butt; stroke-linejoin: miter; stroke-miterlimit: 10; fill: #2D2D30; fill-rule: nonzero; opacity: 1;" transform=" matrix(1 0 0 1 0 0) " stroke-linecap="round" />
  <path d="M 404.308 418.82 c -1.549 0 -3.112 -0.465 -4.472 -1.432 c -3.477 -2.472 -4.291 -7.297 -1.817 -10.775 c 2.128 -2.993 4.196 -6.325 6.143 -9.902 c 2.04 -3.749 6.731 -5.13 10.48 -3.094 c 3.749 2.04 5.132 6.732 3.094 10.48 c -2.242 4.119 -4.639 7.979 -7.125 11.474 C 409.104 417.69 406.725 418.82 404.308 418.82 z" style="stroke: none; stroke-width: 1; stroke-dasharray: none; stroke-linecap: butt; stroke-linejoin: miter; stroke-miterlimit: 10; fill: #2D2D30; fill-rule: nonzero; opacity: 1;" transform=" matrix(1 0 0 1 0 0) " stroke-linecap="round" />
  <path d="M 285.496 397.251 c -1.906 -3.909 -3.572 -8.131 -5.055 -12.499 c -1.372 -4.041 0.791 -8.429 4.831 -9.801 c 4.041 -1.372 8.429 0.79 9.801 4.831 c 1.29 3.798 2.762 7.439 4.373 10.821 c 1.836 3.852 0.201 8.463 -3.651 10.299 C 294.722 401.413 288.793 404.015 285.496 397.251 z" style="stroke: none; stroke-width: 1; stroke-dasharray: none; stroke-linecap: butt; stroke-linejoin: miter; stroke-miterlimit: 10; fill: #2D2D30; fill-rule: nonzero; opacity: 1;" transform=" matrix(1 0 0 1 0 0) " stroke-linecap="round" />
  <path d="M 418.45 384.629 c -4.027 -1.41 -6.148 -5.818 -4.738 -9.846 c 1.29 -3.682 2.527 -7.579 3.679 -11.586 c 1.18 -4.101 5.459 -6.47 9.559 -5.292 c 4.101 1.179 6.471 5.459 5.292 9.559 c -1.232 4.289 -2.591 8.459 -3.947 12.427 C 425.979 386.673 419.296 384.925 418.45 384.629 z" style="stroke: none; stroke-width: 1; stroke-dasharray: none; stroke-linecap: butt; stroke-linejoin: miter; stroke-miterlimit: 10; fill: #2D2D30; fill-rule: nonzero; opacity: 1;" transform=" matrix(1 0 0 1 0 0) " stroke-linecap="round" />
  <path d="M 274.312 358.949 c -0.615 -4.228 -1.131 -8.62 -1.477 -13.062 c -0.331 -4.254 2.849 -7.97 7.104 -8.303 c 4.239 -0.328 7.971 2.849 8.303 7.104 c 0.317 4.077 0.773 8.103 1.353 11.967 c 0.633 4.221 -2.275 8.155 -6.494 8.787 C 282.712 365.502 275.573 367.615 274.312 358.949 z" style="stroke: none; stroke-width: 1; stroke-dasharray: none; stroke-linecap: butt; stroke-linejoin: miter; stroke-miterlimit: 10; fill: #2D2D30; fill-rule: nonzero; opacity: 1;" transform=" matrix(1 0 0 1 0 0) " stroke-linecap="round" />
  <circle cx="267.625" cy="285.115" r="58.495" style="stroke: none; stroke-width: 1; stroke-dasharray: none; stroke-linecap: butt; stroke-linejoin: miter; stroke-miterlimit: 10; fill: #FFE477; fill-rule: nonzero; opacity: 1;" transform="  matrix(1 0 0 1 0 0) "/>
  <path d="M 273.901 226.958 c -32.119 -3.469 -60.968 19.758 -64.437 51.877 c -2.053 19.013 5.25 36.877 18.213 49.013 l 82.666 -82.666 C 301.103 235.287 288.416 228.525 273.901 226.958 z" style="stroke: none; stroke-width: 1; stroke-dasharray: none; stroke-linecap: butt; stroke-linejoin: miter; stroke-miterlimit: 10; fill: #FFD422; fill-rule: nonzero; opacity: 1;" transform=" matrix(1 0 0 1 0 0) " stroke-linecap="round" />
  <circle cx="267.621" cy="285.111" r="43.201" style="stroke: none; stroke-width: 1; stroke-dasharray: none; stroke-linecap: butt; stroke-linejoin: miter; stroke-miterlimit: 10; fill: #9BC9FF; fill-rule: nonzero; opacity: 1;" transform="  matrix(1 0 0 1 0 0) "/>
  <path d="M 299.525 256 c -6.852 -7.513 -16.361 -12.659 -27.266 -13.836 c -23.721 -2.562 -45.028 14.591 -47.589 38.313 c -1.536 14.226 4.024 27.578 13.833 36.545 L 299.525 256 L 299.525 256 z" style="stroke: none; stroke-width: 1; stroke-dasharray: none; stroke-linecap: butt; stroke-linejoin: miter; stroke-miterlimit: 10; fill: #57A4FF; fill-rule: nonzero; opacity: 1;" transform=" matrix(1 0 0 1 0 0) " stroke-linecap="round" />
  <polygon points="185.81,133.55 291.2,110.86 247.45,69.49 197.65,85.47 " style="stroke: none; stroke-width: 1; stroke-dasharray: none; stroke-linecap: butt; stroke-linejoin: miter; stroke-miterlimit: 10; fill: #9A4C00; fill-rule: nonzero; opacity: 1;" transform="  matrix(1 0 0 1 0 0) "/>
  <path d="M 179.532 128.67 c -1.227 -41.594 9.136 -116.509 97.428 -127.903 c -1.238 -0.914 91.752 -10.831 141.564 78.347 c 0 0 12.46 20.539 35.054 18.162 c 7.008 -0.738 12.043 6.596 8.942 12.925 c -17.75 36.227 -66.759 106.967 -156.455 34.369 c -75.8 -61.35 -105.356 -37.75 -116.749 -13.845 C 186.992 135.605 179.692 134.072 179.532 128.67 z" style="stroke: none; stroke-width: 1; stroke-dasharray: none; stroke-linecap: butt; stroke-linejoin: miter; stroke-miterlimit: 10; fill: #AA6100; fill-rule: nonzero; opacity: 1;" transform=" matrix(1 0 0 1 0 0) " stroke-linecap="round" />
  <path d="M 453.58 97.276 c -22.594 2.377 -35.054 -18.162 -35.054 -18.162 C 368.714 -10.065 275.723 -0.148 276.962 0.766 c -65.44 8.444 -88.066 51.783 -94.897 90.587 c 14.565 -14.269 35.295 -25.081 64.646 -28.869 c -1.238 -0.914 91.752 -10.831 141.564 78.347 c 0 0 9.547 16.626 37.11 18.197 c 17.828 -14.162 30.006 -34.277 37.136 -48.829 C 465.622 103.872 460.588 96.538 453.58 97.276 z" style="stroke: none; stroke-width: 1; stroke-dasharray: none; stroke-linecap: butt; stroke-linejoin: miter; stroke-miterlimit: 10; fill: #9A4C00; fill-rule: nonzero; opacity: 1;" transform=" matrix(1 0 0 1 0 0) " stroke-linecap="round" />
</g>
</svg>